REM DIRINDEX 1\2\4,1\2\5,1\2\6,1\3\7,1\3\8
REM DIRNAME folder01,folder02,folder03,folder04,folder05,folder06,folder07,folder08
TITLE ""
FILE "011_Lesson 09_Output_Stage.mp3" MP3
  TRACK 01 AUDIO
    TITLE "0:"
    INDEX 01 00:00:00
  TRACK 02 AUDIO
    TITLE "6:cjc128_0579"
    INDEX 01 00:00:11
  TRACK 03 AUDIO
    TITLE "0:"
    INDEX 01 00:03:04
  TRACK 04 AUDIO
    TITLE "6:cjc128_0580"
    INDEX 01 00:03:61
  TRACK 05 AUDIO
    TITLE "0:"
    INDEX 01 00:05:34
  TRACK 06 AUDIO
    TITLE "4:cjc128_0581"
    INDEX 01 00:06:18
  TRACK 07 AUDIO
    TITLE "0:"
    INDEX 01 00:09:61
  TRACK 08 AUDIO
    TITLE "5:cjc128_0582"
    INDEX 01 00:13:22
  TRACK 09 AUDIO
    TITLE "0:"
    INDEX 01 00:16:53
  TRACK 10 AUDIO
    TITLE "6:cjc128_0583"
    INDEX 01 00:17:20
  TRACK 11 AUDIO
    TITLE "0:"
    INDEX 01 00:19:18
  TRACK 12 AUDIO
    TITLE "4:cjc128_0584"
    INDEX 01 00:19:73
  TRACK 13 AUDIO
    TITLE "0:"
    INDEX 01 00:22:48
  TRACK 14 AUDIO
    TITLE "5:cjc128_0585"
    INDEX 01 00:25:27
  TRACK 15 AUDIO
    TITLE "0:"
    INDEX 01 00:27:43
  TRACK 16 AUDIO
    TITLE "6:cjc128_0586"
    INDEX 01 00:28:23
  TRACK 17 AUDIO
    TITLE "0:"
    INDEX 01 00:30:20
  TRACK 18 AUDIO
    TITLE "4:cjc128_0587"
    INDEX 01 00:31:02
  TRACK 19 AUDIO
    TITLE "0:"
    INDEX 01 00:33:52
  TRACK 20 AUDIO
    TITLE "5:cjc128_0588"
    INDEX 01 00:36:35
  TRACK 21 AUDIO
    TITLE "0:"
    INDEX 01 00:38:65
  TRACK 22 AUDIO
    TITLE "6:cjc128_0589"
    INDEX 01 00:39:41
  TRACK 23 AUDIO
    TITLE "0:"
    INDEX 01 00:41:42
  TRACK 24 AUDIO
    TITLE "4:cjc128_0590"
    INDEX 01 00:42:16
  TRACK 25 AUDIO
    TITLE "0:"
    INDEX 01 00:45:73
  TRACK 26 AUDIO
    TITLE "5:cjc128_0591"
    INDEX 01 00:48:69
  TRACK 27 AUDIO
    TITLE "0:"
    INDEX 01 00:51:22
  TRACK 28 AUDIO
    TITLE "6:cjc128_0592"
    INDEX 01 00:52:00
  TRACK 29 AUDIO
    TITLE "0:"
    INDEX 01 00:53:68
  TRACK 30 AUDIO
    TITLE "4:cjc128_0593"
    INDEX 01 00:54:54
  TRACK 31 AUDIO
    TITLE "0:"
    INDEX 01 00:57:52
  TRACK 32 AUDIO
    TITLE "5:cjc128_0594"
    INDEX 01 01:00:41
  TRACK 33 AUDIO
    TITLE "0:"
    INDEX 01 01:02:71
  TRACK 34 AUDIO
    TITLE "6:cjc128_0595"
    INDEX 01 01:03:55
  TRACK 35 AUDIO
    TITLE "0:"
    INDEX 01 01:05:58
  TRACK 36 AUDIO
    TITLE "4:cjc128_0596"
    INDEX 01 01:06:34
  TRACK 37 AUDIO
    TITLE "0:"
    INDEX 01 01:10:10
  TRACK 38 AUDIO
    TITLE "5:cjc128_0597"
    INDEX 01 01:13:51
  TRACK 39 AUDIO
    TITLE "0:"
    INDEX 01 01:16:63
  TRACK 40 AUDIO
    TITLE "6:cjc128_0598"
    INDEX 01 01:17:47
  TRACK 41 AUDIO
    TITLE "0:"
    INDEX 01 01:19:48
  TRACK 42 AUDIO
    TITLE "4:cjc128_0599"
    INDEX 01 01:20:32
  TRACK 43 AUDIO
    TITLE "0:"
    INDEX 01 01:22:52
  TRACK 44 AUDIO
    TITLE "5:cjc128_0600"
    INDEX 01 01:25:09
  TRACK 45 AUDIO
    TITLE "0:"
    INDEX 01 01:27:18
  TRACK 46 AUDIO
    TITLE "6:cjc128_0601"
    INDEX 01 01:27:65
  TRACK 47 AUDIO
    TITLE "0:"
    INDEX 01 01:29:62
  TRACK 48 AUDIO
    TITLE "4:cjc128_0602"
    INDEX 01 01:30:36
  TRACK 49 AUDIO
    TITLE "0:"
    INDEX 01 01:32:35
  TRACK 50 AUDIO
    TITLE "5:cjc128_0603"
    INDEX 01 01:34:71
  TRACK 51 AUDIO
    TITLE "0:"
    INDEX 01 01:36:72
  TRACK 52 AUDIO
    TITLE "6:cjc128_0604"
    INDEX 01 01:37:52
  TRACK 53 AUDIO
    TITLE "0:"
    INDEX 01 01:39:41
  TRACK 54 AUDIO
    TITLE "4:cjc128_0605"
    INDEX 01 01:40:21
  TRACK 55 AUDIO
    TITLE "0:"
    INDEX 01 01:43:11
  TRACK 56 AUDIO
    TITLE "5:cjc128_0606"
    INDEX 01 01:46:19
  TRACK 57 AUDIO
    TITLE "0:"
    INDEX 01 01:48:65
  TRACK 58 AUDIO
    TITLE "6:cjc128_0607"
    INDEX 01 01:49:51
  TRACK 59 AUDIO
    TITLE "0:"
    INDEX 01 01:51:52
  TRACK 60 AUDIO
    TITLE "4:cjc128_0608"
    INDEX 01 01:52:20
  TRACK 61 AUDIO
    TITLE "0:"
    INDEX 01 01:55:22
  TRACK 62 AUDIO
    TITLE "5:cjc128_0609"
    INDEX 01 01:59:08
  TRACK 63 AUDIO
    TITLE "0:"
    INDEX 01 02:02:26
  TRACK 64 AUDIO
    TITLE "6:cjc128_0610"
    INDEX 01 02:03:06
  TRACK 65 AUDIO
    TITLE "0:"
    INDEX 01 02:04:25
  TRACK 66 AUDIO
    TITLE "4:cjc128_0611"
    INDEX 01 02:05:09
  TRACK 67 AUDIO
    TITLE "0:"
    INDEX 01 02:07:20
  TRACK 68 AUDIO
    TITLE "5:cjc128_0612"
    INDEX 01 02:10:04
  TRACK 69 AUDIO
    TITLE "0:"
    INDEX 01 02:12:15
  TRACK 70 AUDIO
    TITLE "6:cjc128_0613"
    INDEX 01 02:13:05
  TRACK 71 AUDIO
    TITLE "0:"
    INDEX 01 02:14:65
  TRACK 72 AUDIO
    TITLE "4:cjc128_0614"
    INDEX 01 02:15:45
  TRACK 73 AUDIO
    TITLE "0:"
    INDEX 01 02:19:11
  TRACK 74 AUDIO
    TITLE "5:cjc128_0615"
    INDEX 01 02:23:25
  TRACK 75 AUDIO
    TITLE "0:"
    INDEX 01 02:26:60
  TRACK 76 AUDIO
    TITLE "6:cjc128_0616"
    INDEX 01 02:27:46
  TRACK 77 AUDIO
    TITLE "0:"
    INDEX 01 02:29:25
  TRACK 78 AUDIO
    TITLE "4:cjc128_0617"
    INDEX 01 02:30:11
  TRACK 79 AUDIO
    TITLE "0:"
    INDEX 01 02:33:68
  TRACK 80 AUDIO
    TITLE "5:cjc128_0618"
    INDEX 01 02:37:48
  TRACK 81 AUDIO
    TITLE "0:"
    INDEX 01 02:40:64
  TRACK 82 AUDIO
    TITLE "6:cjc128_0619"
    INDEX 01 02:41:36
  TRACK 83 AUDIO
    TITLE "0:"
    INDEX 01 02:43:19
  TRACK 84 AUDIO
    TITLE "4:cjc128_0620"
    INDEX 01 02:44:01
  TRACK 85 AUDIO
    TITLE "0:"
    INDEX 01 02:47:00
  TRACK 86 AUDIO
    TITLE "5:cjc128_0621"
    INDEX 01 02:50:10
  TRACK 87 AUDIO
    TITLE "0:"
    INDEX 01 02:52:48
  TRACK 88 AUDIO
    TITLE "6:cjc128_0622"
    INDEX 01 02:53:24
  TRACK 89 AUDIO
    TITLE "0:"
    INDEX 01 02:55:05
  TRACK 90 AUDIO
    TITLE "4:cjc128_0623"
    INDEX 01 02:55:68
  TRACK 91 AUDIO
    TITLE "0:"
    INDEX 01 02:58:54
  TRACK 92 AUDIO
    TITLE "5:cjc128_0624"
    INDEX 01 03:01:39
  TRACK 93 AUDIO
    TITLE "0:"
    INDEX 01 03:03:59
  TRACK 94 AUDIO
    TITLE "6:cjc128_0625"
    INDEX 01 03:04:41
  TRACK 95 AUDIO
    TITLE "0:"
    INDEX 01 03:06:34
  TRACK 96 AUDIO
    TITLE "4:cjc128_0626"
    INDEX 01 03:07:18
  TRACK 97 AUDIO
    TITLE "0:"
    INDEX 01 03:10:18
  TRACK 98 AUDIO
    TITLE "5:cjc128_0627"
    INDEX 01 03:13:36
  TRACK 99 AUDIO
    TITLE "0:"
    INDEX 01 03:15:74
  TRACK 100 AUDIO
    TITLE "6:cjc128_0628"
    INDEX 01 03:16:60
  TRACK 101 AUDIO
    TITLE "0:"
    INDEX 01 03:18:41
  TRACK 102 AUDIO
    TITLE "4:cjc128_0629"
    INDEX 01 03:19:27
  TRACK 103 AUDIO
    TITLE "0:"
    INDEX 01 03:21:63
  TRACK 104 AUDIO
    TITLE "5:cjc128_0630"
    INDEX 01 03:25:20
  TRACK 105 AUDIO
    TITLE "0:"
    INDEX 01 03:28:00
  TRACK 106 AUDIO
    TITLE "6:cjc128_0631"
    INDEX 01 03:28:57
  TRACK 107 AUDIO
    TITLE "0:"
    INDEX 01 03:30:48
  TRACK 108 AUDIO
    TITLE "4:cjc128_0632"
    INDEX 01 03:31:26
  TRACK 109 AUDIO
    TITLE "0:"
    INDEX 01 03:34:03
  TRACK 110 AUDIO
    TITLE "5:cjc128_0633"
    INDEX 01 03:37:07
  TRACK 111 AUDIO
    TITLE "0:"
    INDEX 01 03:39:32
  TRACK 112 AUDIO
    TITLE "6:cjc128_0634"
    INDEX 01 03:40:21
  TRACK 113 AUDIO
    TITLE "0:"
    INDEX 01 03:41:72
  TRACK 114 AUDIO
    TITLE "4:cjc128_0635"
    INDEX 01 03:42:52
  TRACK 115 AUDIO
    TITLE "0:"
    INDEX 01 03:46:42
  TRACK 116 AUDIO
    TITLE "5:cjc128_0636"
    INDEX 01 03:50:28
  TRACK 117 AUDIO
    TITLE "0:"
    INDEX 01 03:53:42
  TRACK 118 AUDIO
    TITLE "6:cjc128_0637"
    INDEX 01 03:54:18
  TRACK 119 AUDIO
    TITLE "0:"
    INDEX 01 03:56:05
  TRACK 120 AUDIO
    TITLE "4:cjc128_0638"
    INDEX 01 03:56:54
  TRACK 121 AUDIO
    TITLE "0:"
    INDEX 01 03:59:34
  TRACK 122 AUDIO
    TITLE "5:cjc128_0639"
    INDEX 01 04:02:09
  TRACK 123 AUDIO
    TITLE "0:"
    INDEX 01 04:04:43
  TRACK 124 AUDIO
    TITLE "6:cjc128_0640"
    INDEX 01 04:05:21
  TRACK 125 AUDIO
    TITLE "0:"
    INDEX 01 04:06:64
  TRACK 126 AUDIO
    TITLE "4:cjc128_0641"
    INDEX 01 04:07:48
  TRACK 127 AUDIO
    TITLE "0:"
    INDEX 01 04:10:07
  TRACK 128 AUDIO
    TITLE "5:cjc128_0642"
    INDEX 01 04:13:05
  TRACK 129 AUDIO
    TITLE "0:"
    INDEX 01 04:15:31
